<svg width="94" height="94" viewBox="0 0 94 94" fill="none" xmlns="http://www.w3.org/2000/svg">
<circle cx="47" cy="47" r="47" fill="white"/>
<path d="M64.5 24.5H29.5C26.725 24.5 24.5 26.725 24.5 29.5V64.5C24.5 65.8261 25.0268 67.0979 25.9645 68.0355C26.9021 68.9732 28.1739 69.5 29.5 69.5H64.5C67.275 69.5 69.5 67.275 69.5 64.5V29.5C69.5 28.1739 68.9732 26.9021 68.0355 25.9645C67.0979 25.0268 65.8261 24.5 64.5 24.5ZM39.075 34.625C41.525 34.625 43.5 36.6 43.5 39.075C43.5 41.525 41.525 43.5 39.075 43.5C36.6 43.5 34.625 41.525 34.625 39.075C34.625 36.6 36.6 34.625 39.075 34.625ZM55.05 59.5C52.6 59.5 50.625 57.5 50.625 55.05C50.625 52.6 52.6 50.625 55.05 50.625C57.5 50.625 59.5 52.6 59.5 55.05C59.5 57.5 57.5 59.5 55.05 59.5ZM38.25 59.575L34.5 55.825L55.825 34.5L59.575 38.25L38.25 59.575Z" fill="url(#paint0_linear_276_439)"/>
<defs>
<linearGradient id="paint0_linear_276_439" x1="47" y1="24.5" x2="47" y2="69.5" gradientUnits="userSpaceOnUse">
<stop offset="0.114583" stop-color="#3C007A"/>
<stop offset="0.9999" stop-color="#00023F"/>
<stop offset="1" stop-color="#00023F"/>
</linearGradient>
</defs>
</svg>
