<svg width="94" height="94" viewBox="0 0 94 94" fill="none" xmlns="http://www.w3.org/2000/svg">
<circle cx="47" cy="47" r="47" fill="white"/>
<g clip-path="url(#clip0_276_437)">
<path d="M41.1925 23.5368C42.0375 21.6368 44.64 21.5443 45.66 23.2518L45.8075 23.5368L48.4125 29.3993C50.6872 34.5166 54.47 38.8175 59.255 41.7268L60.06 42.1993L64.685 44.7993C65.0527 45.0052 65.363 45.2997 65.5877 45.6562C65.8123 46.0127 65.9442 46.4197 65.9713 46.8402C65.9984 47.2607 65.9198 47.6813 65.7428 48.0637C65.5657 48.4461 65.2957 48.778 64.9575 49.0293L64.6875 49.2043L60.06 51.8043C55.1785 54.5502 51.2517 58.7212 48.805 63.7593L48.4125 64.6043L45.8075 70.4668C44.9625 72.3668 42.36 72.4593 41.34 70.7518L41.1925 70.4668L38.5875 64.6043C36.3128 59.487 32.53 55.1862 27.745 52.2768L26.94 51.8043L22.315 49.2043C21.9473 48.9985 21.637 48.7039 21.4123 48.3474C21.1876 47.991 21.0558 47.5839 21.0287 47.1634C21.0016 46.7429 21.0801 46.3223 21.2572 45.94C21.4343 45.5576 21.7043 45.2256 22.0425 44.9743L22.3125 44.7993L26.94 42.1993C31.8215 39.4534 35.7483 35.2825 38.195 30.2443L38.5875 29.3993L41.1925 23.5368ZM43.5 30.6568C40.39 37.6568 35.285 43.2418 28.6 47.0018C35.285 50.7618 40.39 56.3468 43.5 63.3468C46.62 56.3293 51.725 50.7568 58.4 47.0018C51.715 43.2418 46.61 37.6568 43.5 30.6568ZM64.05 22.3068C65.2921 25.1253 67.4091 27.4685 70.0875 28.9893C70.4875 29.2143 70.4875 29.7893 70.0875 30.0143C67.4083 31.5364 65.2912 33.8815 64.05 36.7018C64.0025 36.808 63.9253 36.8982 63.8277 36.9614C63.7301 37.0247 63.6163 37.0583 63.5 37.0583C63.3837 37.0583 63.2699 37.0247 63.1723 36.9614C63.0747 36.8982 62.9975 36.808 62.95 36.7018C61.7084 33.8825 59.5913 31.5383 56.9125 30.0168C56.8221 29.9653 56.7469 29.8907 56.6946 29.8007C56.6423 29.7107 56.6148 29.6084 56.6148 29.5043C56.6148 29.4002 56.6423 29.298 56.6946 29.208C56.7469 29.118 56.8221 29.0434 56.9125 28.9918C59.5921 27.4691 61.7093 25.1231 62.95 22.3018C62.9975 22.1957 63.0747 22.1055 63.1723 22.0422C63.2699 21.979 63.3837 21.9453 63.5 21.9453C63.6163 21.9453 63.7301 21.979 63.8277 22.0422C63.9253 22.1055 64.0025 22.1957 64.05 22.3018V22.3068Z" fill="url(#paint0_linear_276_437)"/>
</g>
<defs>
<linearGradient id="paint0_linear_276_437" x1="45.7055" y1="21.9453" x2="45.7055" y2="71.9658" gradientUnits="userSpaceOnUse">
<stop offset="0.114583" stop-color="#3C007A"/>
<stop offset="0.9999" stop-color="#00023F"/>
<stop offset="1" stop-color="#00023F"/>
</linearGradient>
<clipPath id="clip0_276_437">
<rect width="60" height="60" fill="white" transform="translate(16 17)"/>
</clipPath>
</defs>
</svg>
