<svg width="20" height="21" viewBox="0 0 20 21" fill="none" xmlns="http://www.w3.org/2000/svg">
<path d="M17 2.08333H15V1.04167C15 0.7654 14.8946 0.500447 14.7071 0.305097C14.5196 0.109747 14.2652 0 14 0C13.7348 0 13.4804 0.109747 13.2929 0.305097C13.1054 0.500447 13 0.7654 13 1.04167V2.08333H7V1.04167C7 0.7654 6.89464 0.500447 6.70711 0.305097C6.51957 0.109747 6.26522 0 6 0C5.73478 0 5.48043 0.109747 5.29289 0.305097C5.10536 0.500447 5 0.7654 5 1.04167V2.08333H3C2.20435 2.08333 1.44129 2.41257 0.87868 2.99863C0.316071 3.58468 0 4.37953 0 5.20833V17.7083C0 18.5371 0.316071 19.332 0.87868 19.918C1.44129 20.5041 2.20435 20.8333 3 20.8333H17C17.7956 20.8333 18.5587 20.5041 19.1213 19.918C19.6839 19.332 20 18.5371 20 17.7083V5.20833C20 4.37953 19.6839 3.58468 19.1213 2.99863C18.5587 2.41257 17.7956 2.08333 17 2.08333ZM18 17.7083C18 17.9846 17.8946 18.2496 17.7071 18.4449C17.5196 18.6403 17.2652 18.75 17 18.75H3C2.73478 18.75 2.48043 18.6403 2.29289 18.4449C2.10536 18.2496 2 17.9846 2 17.7083V10.4167H18V17.7083ZM18 8.33333H2V5.20833C2 4.93207 2.10536 4.66711 2.29289 4.47176C2.48043 4.27641 2.73478 4.16667 3 4.16667H5V5.20833C5 5.4846 5.10536 5.74955 5.29289 5.9449C5.48043 6.14025 5.73478 6.25 6 6.25C6.26522 6.25 6.51957 6.14025 6.70711 5.9449C6.89464 5.74955 7 5.4846 7 5.20833V4.16667H13V5.20833C13 5.4846 13.1054 5.74955 13.2929 5.9449C13.4804 6.14025 13.7348 6.25 14 6.25C14.2652 6.25 14.5196 6.14025 14.7071 5.9449C14.8946 5.74955 15 5.4846 15 5.20833V4.16667H17C17.2652 4.16667 17.5196 4.27641 17.7071 4.47176C17.8946 4.66711 18 4.93207 18 5.20833V8.33333Z" fill="#FF9840"/>
</svg>
