<svg width="40" height="41" viewBox="0 0 40 41" fill="none" xmlns="http://www.w3.org/2000/svg">
<path d="M20 41C22.7667 41 25.3667 40.4615 27.8 39.3846C30.2333 38.3077 32.35 36.8474 34.15 35.0037C35.95 33.1587 37.3747 30.9892 38.424 28.495C39.4733 26.0008 39.9987 23.3358 40 20.5C40 17.6642 39.4747 14.9992 38.424 12.505C37.3733 10.0108 35.9487 7.84125 34.15 5.99625C32.35 4.15125 30.2333 2.69097 27.8 1.6154C25.3667 0.539833 22.7667 0.00136667 20 0C17.2333 0 14.6333 0.538467 12.2 1.6154C9.76667 2.69233 7.65 4.15262 5.85 5.99625C4.05 7.84125 2.62467 10.0108 1.574 12.505C0.523335 14.9992 -0.00133514 17.6642 0 20.5C0 23.3358 0.525333 26.0008 1.576 28.495C2.62667 30.9892 4.05133 33.1587 5.85 35.0037C7.65 36.8488 9.76667 38.3097 12.2 39.3866C14.6333 40.4636 17.2333 41.0014 20 41ZM19.6 22.55L21.4 24.395C21.7667 24.7708 21.95 25.2492 21.95 25.83C21.95 26.4108 21.7667 26.8892 21.4 27.265C21.0333 27.6408 20.5667 27.8287 20 27.8287C19.4333 27.8287 18.9667 27.6408 18.6 27.265L13.4 21.935C13 21.525 12.8 21.0467 12.8 20.5C12.8 19.9533 13 19.475 13.4 19.065L18.6 13.735C18.9667 13.3592 19.4333 13.1713 20 13.1713C20.5667 13.1713 21.0333 13.3592 21.4 13.735C21.7667 14.1108 21.95 14.5892 21.95 15.17C21.95 15.7508 21.7667 16.2292 21.4 16.605L19.6 18.45H26C26.5667 18.45 27.042 18.6468 27.426 19.0404C27.81 19.434 28.0013 19.9205 28 20.5C28 21.0808 27.808 21.5681 27.424 21.9616C27.04 22.3552 26.5653 22.5514 26 22.55H19.6Z" fill="white"/>
</svg>
