<svg width="94" height="94" viewBox="0 0 94 94" fill="none" xmlns="http://www.w3.org/2000/svg">
<circle cx="47" cy="47" r="47" fill="white"/>
<path d="M48 44.5C51.3152 44.5 54.4946 45.817 56.8388 48.1612C59.183 50.5054 60.5 53.6848 60.5 57V72H55.5V57C55.5001 55.087 54.7692 53.2462 53.4568 51.8543C52.1444 50.4625 50.3497 49.6247 48.44 49.5125L48 49.5C46.087 49.4999 44.2462 50.2308 42.8543 51.5432C41.4625 52.8556 40.6247 54.6503 40.5125 56.56L40.5 57V72H35.5V57C35.5 53.6848 36.817 50.5054 39.1612 48.1612C41.5054 45.817 44.6848 44.5 48 44.5ZM31.75 52C32.4475 52 33.125 52.0825 33.775 52.235C33.3476 53.5075 33.0945 54.8321 33.0225 56.1725L33 57V57.215C32.7126 57.1122 32.4137 57.045 32.11 57.015L31.75 57C30.8182 57 29.9197 57.3469 29.2297 57.9731C28.5397 58.5993 28.1076 59.46 28.0175 60.3875L28 60.75V72H23V60.75C23 58.4294 23.9219 56.2038 25.5628 54.5628C27.2038 52.9219 29.4294 52 31.75 52ZM64.25 52C66.5706 52 68.7962 52.9219 70.4372 54.5628C72.0781 56.2038 73 58.4294 73 60.75V72H68V60.75C68 59.8182 67.6531 58.9197 67.0269 58.2297C66.4007 57.5397 65.54 57.1076 64.6125 57.0175L64.25 57C63.8125 57 63.3925 57.075 63 57.2125V57C63 55.335 62.73 53.735 62.23 52.24C62.875 52.0825 63.555 52 64.25 52ZM31.75 37C33.4076 37 34.9973 37.6585 36.1694 38.8306C37.3415 40.0027 38 41.5924 38 43.25C38 44.9076 37.3415 46.4973 36.1694 47.6694C34.9973 48.8415 33.4076 49.5 31.75 49.5C30.0924 49.5 28.5027 48.8415 27.3306 47.6694C26.1585 46.4973 25.5 44.9076 25.5 43.25C25.5 41.5924 26.1585 40.0027 27.3306 38.8306C28.5027 37.6585 30.0924 37 31.75 37ZM64.25 37C65.9076 37 67.4973 37.6585 68.6694 38.8306C69.8415 40.0027 70.5 41.5924 70.5 43.25C70.5 44.9076 69.8415 46.4973 68.6694 47.6694C67.4973 48.8415 65.9076 49.5 64.25 49.5C62.5924 49.5 61.0027 48.8415 59.8306 47.6694C58.6585 46.4973 58 44.9076 58 43.25C58 41.5924 58.6585 40.0027 59.8306 38.8306C61.0027 37.6585 62.5924 37 64.25 37ZM31.75 42C31.4185 42 31.1005 42.1317 30.8661 42.3661C30.6317 42.6005 30.5 42.9185 30.5 43.25C30.5 43.5815 30.6317 43.8995 30.8661 44.1339C31.1005 44.3683 31.4185 44.5 31.75 44.5C32.0815 44.5 32.3995 44.3683 32.6339 44.1339C32.8683 43.8995 33 43.5815 33 43.25C33 42.9185 32.8683 42.6005 32.6339 42.3661C32.3995 42.1317 32.0815 42 31.75 42ZM64.25 42C63.9185 42 63.6005 42.1317 63.3661 42.3661C63.1317 42.6005 63 42.9185 63 43.25C63 43.5815 63.1317 43.8995 63.3661 44.1339C63.6005 44.3683 63.9185 44.5 64.25 44.5C64.5815 44.5 64.8995 44.3683 65.1339 44.1339C65.3683 43.8995 65.5 43.5815 65.5 43.25C65.5 42.9185 65.3683 42.6005 65.1339 42.3661C64.8995 42.1317 64.5815 42 64.25 42ZM48 22C50.6522 22 53.1957 23.0536 55.0711 24.9289C56.9464 26.8043 58 29.3478 58 32C58 34.6522 56.9464 37.1957 55.0711 39.0711C53.1957 40.9464 50.6522 42 48 42C45.3478 42 42.8043 40.9464 40.9289 39.0711C39.0536 37.1957 38 34.6522 38 32C38 29.3478 39.0536 26.8043 40.9289 24.9289C42.8043 23.0536 45.3478 22 48 22ZM48 27C46.6739 27 45.4021 27.5268 44.4645 28.4645C43.5268 29.4021 43 30.6739 43 32C43 33.3261 43.5268 34.5979 44.4645 35.5355C45.4021 36.4732 46.6739 37 48 37C49.3261 37 50.5979 36.4732 51.5355 35.5355C52.4732 34.5979 53 33.3261 53 32C53 30.6739 52.4732 29.4021 51.5355 28.4645C50.5979 27.5268 49.3261 27 48 27Z" fill="url(#paint0_linear_276_440)"/>
<defs>
<linearGradient id="paint0_linear_276_440" x1="48" y1="22" x2="48" y2="72" gradientUnits="userSpaceOnUse">
<stop offset="0.114583" stop-color="#3C007A"/>
<stop offset="0.9999" stop-color="#00023F"/>
<stop offset="1" stop-color="#00023F"/>
</linearGradient>
</defs>
</svg>
