<svg width="21" height="22" viewBox="0 0 21 22" fill="none" xmlns="http://www.w3.org/2000/svg">
<path d="M18.9716 21.6558L12.2898 14.6458C11.6932 15.1465 11.0071 15.5429 10.2315 15.835C9.45597 16.1271 8.63068 16.2731 7.75568 16.2731C5.58807 16.2731 3.75375 15.4853 2.25273 13.9098C0.751704 12.3342 0.000795455 10.4098 0 8.13656C0 5.86249 0.750909 3.93809 2.25273 2.36336C3.75455 0.78862 5.58886 0.000834519 7.75568 0C9.9233 0 11.7576 0.787786 13.2586 2.36336C14.7597 3.93893 15.5106 5.86333 15.5114 8.13656C15.5114 9.05453 15.3722 9.92034 15.0938 10.734C14.8153 11.5477 14.4375 12.2674 13.9602 12.8933L20.6719 19.9346C20.8906 20.1641 21 20.4457 21 20.7795C21 21.1133 20.8807 21.4054 20.642 21.6558C20.4233 21.8853 20.1449 22 19.8068 22C19.4688 22 19.1903 21.8853 18.9716 21.6558ZM7.75568 13.7696C9.24716 13.7696 10.5151 13.2217 11.5595 12.126C12.604 11.0303 13.1258 9.70045 13.125 8.13656C13.125 6.57183 12.6028 5.24161 11.5584 4.14589C10.5139 3.05017 9.24636 2.50272 7.75568 2.50356C6.2642 2.50356 4.99625 3.05142 3.95182 4.14714C2.90739 5.24286 2.38557 6.57267 2.38636 8.13656C2.38636 9.70128 2.90858 11.0315 3.95301 12.1272C4.99744 13.2229 6.265 13.7704 7.75568 13.7696Z" fill="white"/>
</svg>
