<svg width="94" height="94" viewBox="0 0 94 94" fill="none" xmlns="http://www.w3.org/2000/svg">
<circle cx="47" cy="47" r="47" fill="white"/>
<path fill-rule="evenodd" clip-rule="evenodd" d="M61.3833 52.265C61.9308 51.9911 62.5598 51.9276 63.151 52.0866C63.7422 52.2456 64.2545 52.6159 64.5908 53.1275L64.7358 53.3825L69.7358 63.3825C69.9142 63.7391 70.0047 64.1332 69.9998 64.532C69.9948 64.9307 69.8946 65.3224 69.7074 65.6745C69.5202 66.0266 69.2516 66.3288 68.9238 66.5559C68.596 66.783 68.2187 66.9284 67.8233 66.98L67.5008 67H27.5008C27.102 67.0001 26.7089 66.9048 26.3544 66.7221C25.9999 66.5393 25.6943 66.2744 25.4631 65.9495C25.2318 65.6245 25.0817 65.249 25.0252 64.8542C24.9687 64.4594 25.0075 64.0568 25.1383 63.68L25.2633 63.38L30.2633 53.38C30.5436 52.8007 31.0364 52.3518 31.6392 52.1267C32.242 51.9016 32.9084 51.9176 33.4998 52.1714C34.0911 52.4252 34.5618 52.8973 34.8139 53.4893C35.066 54.0813 35.0801 54.7478 34.8533 55.35L34.7358 55.6175L31.5458 62H63.4558L60.2658 55.6175C59.9698 55.0247 59.9212 54.3386 60.1307 53.71C60.3402 53.0813 60.7908 52.5616 61.3833 52.265ZM47.5008 17C52.1421 17 56.5933 18.8437 59.8752 22.1256C63.1571 25.4075 65.0008 29.8587 65.0008 34.5C65.0008 40.455 61.7783 45.2925 58.4433 48.725C56.6011 50.5961 54.5759 52.2778 52.3983 53.745L51.4658 54.36L50.6358 54.8825C50.5058 54.96 50.3808 55.0325 50.2633 55.1075L49.6208 55.4775C48.3008 56.2275 46.7008 56.2275 45.3808 55.4775L44.7383 55.105L43.9633 54.6325C43.8203 54.5425 43.6778 54.4517 43.5358 54.36L42.6033 53.745C40.4257 52.2778 38.4005 50.5961 36.5583 48.725C33.2233 45.2925 30.0008 40.455 30.0008 34.5C30.0008 29.8587 31.8446 25.4075 35.1264 22.1256C38.4083 18.8437 42.8595 17 47.5008 17ZM47.5008 22C44.1856 22 41.0062 23.317 38.662 25.6612C36.3178 28.0054 35.0008 31.1848 35.0008 34.5C35.0008 38.59 37.2258 42.2375 40.1433 45.24C41.8971 47.0137 43.8366 48.5936 45.9283 49.9525L46.7783 50.495C47.0408 50.6575 47.2833 50.8025 47.5008 50.93L48.2258 50.495L49.0733 49.9525C51.165 48.5936 53.1045 47.0137 54.8583 45.24C57.7758 42.24 60.0008 38.59 60.0008 34.5C60.0008 31.1848 58.6838 28.0054 56.3396 25.6612C53.9954 23.317 50.816 22 47.5008 22ZM47.5008 27C49.4899 27 51.3976 27.7902 52.8041 29.1967C54.2106 30.6032 55.0008 32.5109 55.0008 34.5C55.0008 36.4891 54.2106 38.3968 52.8041 39.8033C51.3976 41.2098 49.4899 42 47.5008 42C45.5117 42 43.604 41.2098 42.1975 39.8033C40.791 38.3968 40.0008 36.4891 40.0008 34.5C40.0008 32.5109 40.791 30.6032 42.1975 29.1967C43.604 27.7902 45.5117 27 47.5008 27ZM47.5008 32C46.8378 32 46.2019 32.2634 45.733 32.7322C45.2642 33.2011 45.0008 33.837 45.0008 34.5C45.0008 35.163 45.2642 35.7989 45.733 36.2678C46.2019 36.7366 46.8378 37 47.5008 37C48.1638 37 48.7997 36.7366 49.2686 36.2678C49.7374 35.7989 50.0008 35.163 50.0008 34.5C50.0008 33.837 49.7374 33.2011 49.2686 32.7322C48.7997 32.2634 48.1638 32 47.5008 32Z" fill="url(#paint0_linear_276_438)"/>
<defs>
<linearGradient id="paint0_linear_276_438" x1="47.5" y1="17" x2="47.5" y2="67" gradientUnits="userSpaceOnUse">
<stop offset="0.114583" stop-color="#3C007A"/>
<stop offset="0.9999" stop-color="#00023F"/>
<stop offset="1" stop-color="#00023F"/>
</linearGradient>
</defs>
</svg>
