<svg width="45" height="45" viewBox="0 0 45 45" fill="none" xmlns="http://www.w3.org/2000/svg">
<path d="M22.5 37.5C26.4782 37.5 30.2936 35.9196 33.1066 33.1066C35.9196 30.2936 37.5 26.4782 37.5 22.5C37.5 18.5218 35.9196 14.7064 33.1066 11.8934C30.2936 9.08035 26.4782 7.5 22.5 7.5C18.5218 7.5 14.7064 9.08035 11.8934 11.8934C9.08035 14.7064 7.5 18.5218 7.5 22.5C7.5 26.4782 9.08035 30.2936 11.8934 33.1066C14.7064 35.9196 18.5218 37.5 22.5 37.5ZM22.5 3.75C24.9623 3.75 27.4005 4.23498 29.6753 5.17726C31.9502 6.11953 34.0172 7.50065 35.7583 9.24175C37.4994 10.9828 38.8805 13.0498 39.8227 15.3247C40.765 17.5995 41.25 20.0377 41.25 22.5C41.25 27.4728 39.2746 32.2419 35.7583 35.7583C32.2419 39.2746 27.4728 41.25 22.5 41.25C12.1312 41.25 3.75 32.8125 3.75 22.5C3.75 17.5272 5.72544 12.7581 9.24175 9.24175C12.7581 5.72544 17.5272 3.75 22.5 3.75ZM23.4375 13.125V22.9688L31.875 27.975L30.4688 30.2812L20.625 24.375V13.125H23.4375Z" fill="white"/>
</svg>
