<svg width="28" height="27" viewBox="0 0 28 27" fill="none" xmlns="http://www.w3.org/2000/svg">
<path d="M14.0026 2.25C20.4461 2.25 25.6693 7.28663 25.6693 13.5C25.6693 19.7134 20.4461 24.75 14.0026 24.75C7.5591 24.75 2.33594 19.7134 2.33594 13.5C2.33594 7.28663 7.5591 2.25 14.0026 2.25ZM13.9909 11.25H12.8359C12.5386 11.2503 12.2526 11.3601 12.0363 11.557C11.8201 11.7538 11.69 12.0228 11.6726 12.3091C11.6551 12.5953 11.7517 12.8772 11.9426 13.0971C12.1334 13.3169 12.4042 13.4583 12.6994 13.4921L12.8359 13.5V19.1138C12.8359 19.6987 13.2956 20.1825 13.8859 20.2432L14.0143 20.25H14.5859C14.8313 20.25 15.0704 20.1754 15.2693 20.0368C15.4682 19.8983 15.6167 19.7027 15.6937 19.4781C15.7707 19.2534 15.7723 19.0111 15.6982 18.7855C15.6242 18.56 15.4783 18.3626 15.2813 18.2216L15.1693 18.1508V12.3863C15.1693 11.8013 14.7096 11.3175 14.1193 11.2567L13.9909 11.25ZM14.0026 7.875C13.6932 7.875 13.3964 7.99353 13.1776 8.2045C12.9589 8.41548 12.8359 8.70163 12.8359 9C12.8359 9.29837 12.9589 9.58452 13.1776 9.7955C13.3964 10.0065 13.6932 10.125 14.0026 10.125C14.312 10.125 14.6088 10.0065 14.8276 9.7955C15.0464 9.58452 15.1693 9.29837 15.1693 9C15.1693 8.70163 15.0464 8.41548 14.8276 8.2045C14.6088 7.99353 14.312 7.875 14.0026 7.875Z" fill="#9629B8"/>
</svg>
