<svg width="99" height="25" viewBox="0 0 99 25" fill="none" xmlns="http://www.w3.org/2000/svg">
<path d="M7.88232 12L0 22.9372C0.0884947 23.3526 0.247547 23.7358 0.464998 24.0574C0.682449 24.379 0.952541 24.6305 1.25463 24.7926C1.55672 24.9548 1.8828 25.0233 2.20795 24.993C2.5331 24.9627 2.84872 24.8343 3.13066 24.6177L12 17.9277L7.88232 12Z" fill="#EA4335"/>
<path d="M97.221 10.5108L95.4058 16.5586H95.3513L93.4575 10.5108H91.7453L94.583 18.9651L92.9615 23.6673H94.6254L99 10.5108H97.221ZM84.3937 5.49206H82.8084V19.4401H84.3937V5.49206ZM78.4277 5.49206H74.6158V19.4401H76.2131V14.1601H78.4336C78.8813 14.1802 79.3276 14.0837 79.7466 13.8762C80.1655 13.6687 80.5488 13.3545 80.8742 12.9516C81.1996 12.5488 81.4605 12.0654 81.6419 11.5295C81.8233 10.9936 81.9216 10.4159 81.9309 9.82999C81.9216 9.24299 81.8232 8.66427 81.6415 8.12743C81.4598 7.59058 81.1984 7.1063 80.8725 6.7027C80.5466 6.29911 80.1626 5.98424 79.7429 5.77637C79.3233 5.5685 78.8762 5.47202 78.4277 5.49206ZM78.4699 12.2126H76.2131V7.46291H78.476C78.9574 7.46291 79.4191 7.71311 79.7596 8.15849C80.1 8.60386 80.2912 9.20791 80.2912 9.83776C80.2912 10.4676 80.1 11.0717 79.7596 11.517C79.4191 11.9624 78.9574 12.2126 78.476 12.2126H78.4699ZM88.3024 10.2099C87.7217 10.1663 87.144 10.3452 86.6399 10.7249C86.1358 11.1045 85.7273 11.6683 85.4645 12.3471L86.8804 13.1388C87.0207 12.8032 87.2329 12.5285 87.4909 12.3484C87.7489 12.1684 88.0415 12.091 88.3327 12.1255C88.5326 12.0994 88.7346 12.1252 88.9268 12.2014C89.1191 12.2777 89.298 12.4029 89.4532 12.5699C89.6083 12.7369 89.7368 12.9423 89.831 13.1745C89.9253 13.4066 89.9836 13.6608 90.0026 13.9225V14.065C89.4953 13.706 88.9275 13.5183 88.3507 13.5187C86.8321 13.5187 85.2831 14.6113 85.2831 16.6853C85.2831 18.5535 86.5234 19.7568 87.9272 19.7568C88.3267 19.7899 88.7255 19.6808 89.0814 19.4411C89.4372 19.2013 89.7367 18.8399 89.9481 18.3952H90.0087V19.4717H91.5577V14.1047C91.5577 11.6269 90.1418 10.2496 88.3143 10.2496L88.3024 10.2099ZM88.1148 17.8569C87.5945 17.8569 86.8683 17.5086 86.8683 16.6695C86.8683 15.593 87.7698 15.1814 88.5566 15.1814C89.0639 15.1634 89.5654 15.3247 90.0085 15.6482C89.9501 16.2535 89.7261 16.8107 89.378 17.2168C89.0299 17.6228 88.5812 17.8502 88.1148 17.8569ZM30.7422 19.741C27.6089 19.7545 25.0497 16.4698 25 12.371C25.0499 8.27217 27.6089 4.98742 30.7422 5.00097C31.4596 4.98537 32.1722 5.1573 32.8382 5.50667C33.5042 5.85604 34.1102 6.37583 34.6206 7.03556L33.5254 8.4526C32.7826 7.50033 31.7821 6.97101 30.7422 6.98011C28.4799 6.98011 26.6459 9.37956 26.6459 12.3393C26.6459 15.2991 28.4799 17.6986 30.7422 17.6986C31.2709 17.7269 31.7983 17.6098 32.2902 17.3548C32.7822 17.0998 33.2277 16.7125 33.5981 16.2181C34.0905 15.5235 34.3872 14.63 34.4392 13.6851H30.7422V11.7298H35.9458C36.0025 12.1451 36.0288 12.5664 36.0244 12.9885C36.0767 14.7409 35.5958 16.4489 34.6872 17.7382C34.1742 18.4161 33.5577 18.9448 32.8779 19.2899C32.1981 19.6349 31.4704 19.7888 30.7422 19.741ZM44.0719 14.9912C44.0919 15.6246 44.0138 16.2566 43.8424 16.8495C43.6709 17.4424 43.4096 17.9837 43.0742 18.4411C42.7387 18.8985 42.3361 19.2624 41.8904 19.511C41.4447 19.7596 40.9652 19.8878 40.4807 19.8878C39.9962 19.8878 39.5168 19.7596 39.0711 19.511C38.6254 19.2624 38.2227 18.8985 37.8873 18.4411C37.5519 17.9837 37.2906 17.4424 37.1191 16.8495C36.9477 16.2566 36.8696 15.6246 36.8896 14.9912C36.8696 14.3579 36.9477 13.7258 37.1191 13.133C37.2906 12.5401 37.5519 11.9987 37.8873 11.5414C38.2227 11.084 38.6254 10.72 39.0711 10.4714C39.5168 10.2228 39.9962 10.0947 40.4807 10.0947C40.9652 10.0947 41.4447 10.2228 41.8904 10.4714C42.3361 10.72 42.7387 11.084 43.0742 11.5414C43.4096 11.9987 43.6709 12.5401 43.8424 13.133C44.0138 13.7258 44.0919 14.3579 44.0719 14.9912ZM42.4987 14.9912C42.5253 14.6236 42.4929 14.2527 42.4036 13.9023C42.3143 13.552 42.17 13.2299 41.98 12.9568C41.79 12.6836 41.5586 12.4653 41.3004 12.316C41.0422 12.1667 40.763 12.0895 40.4807 12.0895C40.1985 12.0895 39.9193 12.1667 39.6611 12.316C39.4029 12.4653 39.1714 12.6836 38.9815 12.9568C38.7915 13.2299 38.6472 13.552 38.5579 13.9023C38.4686 14.2527 38.4362 14.6236 38.4628 14.9912C38.4362 15.3589 38.4686 15.7298 38.5579 16.0801C38.6472 16.4305 38.7915 16.7526 38.9815 17.0257C39.1714 17.2989 39.4029 17.5171 39.6611 17.6665C39.9193 17.8158 40.1985 17.893 40.4807 17.893C40.763 17.893 41.0422 17.8158 41.3004 17.6665C41.5586 17.5171 41.79 17.2989 41.98 17.0257C42.17 16.7526 42.3143 16.4305 42.4036 16.0801C42.4929 15.7298 42.5253 15.3589 42.4987 14.9912ZM52.1193 14.9912C52.1193 17.5839 50.5128 19.6855 48.5313 19.6855C46.5496 19.6855 44.943 17.5839 44.943 14.9912C44.943 12.3986 46.5496 10.297 48.5313 10.297C50.5128 10.297 52.1193 12.3986 52.1193 14.9912ZM50.5523 14.9912C50.5789 14.6236 50.5465 14.2527 50.4572 13.9023C50.3678 13.552 50.2236 13.2299 50.0336 12.9568C49.8436 12.6836 49.6121 12.4653 49.354 12.316C49.0958 12.1667 48.8166 12.0895 48.5343 12.0895C48.252 12.0895 47.9729 12.1667 47.7147 12.316C47.4565 12.4653 47.225 12.6836 47.0351 12.9568C46.8451 13.2299 46.7008 13.552 46.6115 13.9023C46.5222 14.2527 46.4898 14.6236 46.5164 14.9912C46.4896 15.359 46.5219 15.73 46.6112 16.0805C46.7004 16.431 46.8446 16.7532 47.0346 17.0266C47.2246 17.2999 47.4561 17.5182 47.7144 17.6677C47.9726 17.8171 48.2519 17.8943 48.5342 17.8943C48.8166 17.8943 49.0959 17.8171 49.3541 17.6677C49.6123 17.5182 49.8439 17.2999 50.0338 17.0266C50.2238 16.7532 50.3681 16.431 50.4573 16.0805C50.5465 15.73 50.579 15.359 50.5523 14.9912ZM59.973 10.5346V19.0602C59.973 22.559 58.3817 23.9998 56.506 23.9998C55.8185 24.0074 55.1446 23.7483 54.5695 23.2552C53.9945 22.7621 53.544 22.0571 53.2749 21.2293L54.6484 20.4376C54.7909 20.9209 55.039 21.3386 55.3618 21.6385C55.6847 21.9384 56.0679 22.1072 56.4636 22.1238C57.6739 22.1238 58.4119 21.1502 58.4119 19.3372V18.6564H58.3515C58.1142 19.0029 57.8229 19.279 57.4973 19.466C57.1717 19.6531 56.8192 19.7468 56.4636 19.741C54.4585 19.741 52.8332 17.6145 52.8332 14.9912C52.8332 12.368 54.4585 10.2415 56.4636 10.2415C56.8216 10.2312 57.1771 10.3204 57.5067 10.5032C57.8363 10.6861 58.1325 10.9584 58.3757 11.3022H58.4361V10.5108H59.973V10.5346ZM58.5633 15.0151C58.5855 14.6568 58.5525 14.2963 58.4662 13.9551C58.3799 13.6138 58.2421 13.2987 58.0609 13.0285C57.8797 12.7582 57.6589 12.5384 57.4115 12.3819C57.1642 12.2255 56.8953 12.1356 56.6209 12.1178C56.3411 12.1299 56.066 12.2148 55.8117 12.3677C55.5573 12.5206 55.3288 12.7383 55.1395 13.008C54.9501 13.2778 54.8039 13.5942 54.7091 13.9389C54.6144 14.2835 54.5732 14.6494 54.5878 15.0151C54.5748 15.3783 54.6175 15.7413 54.7131 16.0827C54.8088 16.4241 54.9557 16.7371 55.1451 17.0032C55.3344 17.2694 55.5625 17.4834 55.8159 17.6327C56.0694 17.782 56.343 17.8636 56.6209 17.8727C56.8937 17.8589 57.1615 17.7732 57.4083 17.6207C57.6551 17.4681 57.8758 17.2519 58.0572 16.9851C58.2386 16.7182 58.377 16.4061 58.4639 16.0676C58.5509 15.7291 58.5847 15.3711 58.5633 15.0151ZM62.7745 5.50761V19.4481H61.1772V5.50761H62.7745ZM69.0671 16.5588L70.3137 17.6353C69.9809 18.285 69.5306 18.8171 69.0028 19.1844C68.4751 19.5517 67.8861 19.7428 67.2884 19.7407C66.8128 19.7496 66.3409 19.6322 65.901 19.3955C65.4612 19.1588 65.0626 18.8079 64.7295 18.3639C64.3963 17.9199 64.1354 17.3921 63.9627 16.8124C63.79 16.2326 63.7089 15.6131 63.7245 14.9912C63.5778 12.778 64.7238 10.773 66.3882 10.3314C68.0523 9.88971 69.7049 11.1522 70.2289 13.2655L70.3923 13.8118L65.5518 16.4319C65.7026 16.8754 65.9515 17.2497 66.2664 17.5065C66.5812 17.7633 66.9477 17.8909 67.3185 17.8727C67.6712 17.8655 68.0167 17.7411 68.3226 17.5112C68.6285 17.2813 68.8847 16.9538 69.0671 16.5588ZM65.2493 14.8487L68.5046 13.0914C68.3786 12.7687 68.183 12.5015 67.9421 12.3228C67.7012 12.144 67.4255 12.0617 67.1491 12.0859C66.8849 12.101 66.6257 12.1849 66.3866 12.3326C66.1474 12.4802 65.9331 12.6888 65.7563 12.946C65.5794 13.2032 65.4435 13.5039 65.3565 13.8306C65.2694 14.1573 65.233 14.5034 65.2493 14.8487Z" fill="white"/>
<path d="M16.8052 9.99628L12.6627 7L8 12.1677L12.6816 18L16.7925 15.0357C17.1567 14.7949 17.4618 14.4328 17.6746 13.9886C17.8875 13.5445 18 13.0352 18 12.516C18 11.9968 17.8875 11.4875 17.6746 11.0434C17.4618 10.5992 17.1567 10.2371 16.7925 9.99628H16.8052Z" fill="#FBBC04"/>
<path d="M0.0772568 2.00024C0.025076 2.22509 -0.000901754 2.45712 2.38895e-05 2.69006V21.3104C0.000635232 21.5433 0.0265154 21.775 0.0772568 22L9 11.7307L0.0774606 2L0.0772568 2.00024Z" fill="#4285F4"/>
<path d="M7.9296 13L12 7.43442L3.15511 0.414673C2.82234 0.144581 2.44384 0.00150006 2.05816 4.41272e-06C1.59254 -0.00110946 1.13942 0.20868 0.76785 0.597406C0.39628 0.986131 0.126634 1.53248 0 2.15319L7.9296 13Z" fill="#34A853"/>
</svg>
