<svg width="20" height="19" viewBox="0 0 20 19" fill="none" xmlns="http://www.w3.org/2000/svg">
<path d="M15.1826 0.398438H5.29283C2.88313 0.398438 0.929688 2.30822 0.929688 4.66406V14.3328C0.929688 16.6887 2.88313 18.5984 5.29283 18.5984H15.1826C17.5923 18.5984 19.5458 16.6887 19.5458 14.3328V4.66406C19.5458 2.30822 17.5923 0.398438 15.1826 0.398438Z" fill="url(#paint0_radial_252_929)"/>
<path d="M15.1826 0.398438H5.29283C2.88313 0.398438 0.929688 2.30822 0.929688 4.66406V14.3328C0.929688 16.6887 2.88313 18.5984 5.29283 18.5984H15.1826C17.5923 18.5984 19.5458 16.6887 19.5458 14.3328V4.66406C19.5458 2.30822 17.5923 0.398438 15.1826 0.398438Z" fill="url(#paint1_radial_252_929)"/>
<path d="M10.2394 2.3891C8.26447 2.3891 8.01657 2.39756 7.24095 2.43204C6.46678 2.46673 5.93833 2.58653 5.47598 2.76234C4.99764 2.94391 4.59194 3.18684 4.18776 3.58212C3.78323 3.97733 3.53475 4.37397 3.34844 4.84141C3.1681 5.29356 3.04542 5.81041 3.01059 6.56692C2.9759 7.32528 2.96681 7.56771 2.96681 9.49855C2.96681 11.4294 2.97554 11.671 3.01073 12.4292C3.04637 13.1861 3.1689 13.7027 3.34859 14.1548C3.53446 14.6224 3.78294 15.019 4.18726 15.4142C4.59136 15.8097 4.99705 16.0532 5.47504 16.2347C5.93775 16.4106 6.46627 16.5304 7.24029 16.565C8.01599 16.5995 8.26367 16.608 10.2385 16.608C12.2136 16.608 12.4607 16.5995 13.2363 16.565C14.0105 16.5304 14.5395 16.4106 15.0022 16.2347C15.4804 16.0532 15.8855 15.8097 16.2895 15.4142C16.6941 15.019 16.9425 14.6224 17.1288 14.155C17.3076 13.7027 17.4303 13.186 17.4667 12.4294C17.5015 11.6711 17.5106 11.4294 17.5106 9.49855C17.5106 7.56771 17.5015 7.32542 17.4667 6.56707C17.4303 5.8102 17.3076 5.29363 17.1288 4.84162C16.9425 4.37397 16.6941 3.97733 16.2895 3.58212C15.8851 3.1867 15.4805 2.94377 15.0018 2.76241C14.5382 2.58653 14.0095 2.46666 13.2353 2.43204C12.4596 2.39756 12.2127 2.3891 10.2371 2.3891H10.2394ZM9.58701 3.67028C9.78066 3.67 9.99671 3.67028 10.2394 3.67028C12.181 3.67028 12.4111 3.6771 13.1779 3.71116C13.8869 3.74287 14.2717 3.85868 14.528 3.95601C14.8674 4.08483 15.1094 4.23889 15.3637 4.48779C15.6183 4.73661 15.7758 4.97357 15.9079 5.30536C16.0074 5.55561 16.126 5.93184 16.1583 6.62501C16.1932 7.37448 16.2007 7.59956 16.2007 9.49691C16.2007 11.3943 16.1932 11.6194 16.1583 12.3688C16.1259 13.062 16.0074 13.4382 15.9079 13.6885C15.7761 14.0203 15.6183 14.2566 15.3637 14.5053C15.1092 14.7541 14.8676 14.9081 14.528 15.037C14.272 15.1347 13.8869 15.2502 13.1779 15.2819C12.4113 15.316 12.181 15.3234 10.2394 15.3234C8.29763 15.3234 8.06747 15.316 7.30094 15.2819C6.59193 15.25 6.2071 15.1341 5.95055 15.0368C5.61124 14.9079 5.36879 14.7539 5.11428 14.5051C4.85976 14.2563 4.70225 14.0199 4.57012 13.688C4.47057 13.4376 4.35196 13.0614 4.31968 12.3682C4.28484 11.6188 4.27786 11.3937 4.27786 9.49513C4.27786 7.59664 4.28484 7.3727 4.31968 6.62323C4.35211 5.93007 4.47057 5.55384 4.57012 5.30323C4.70196 4.97144 4.85976 4.73448 5.11435 4.48565C5.36887 4.23683 5.61124 4.08277 5.95062 3.95366C6.20695 3.85591 6.59193 3.74038 7.30094 3.70853C7.97177 3.67888 8.23174 3.67 9.58701 3.6685V3.67028ZM14.1211 4.85072C13.6393 4.85072 13.2485 5.23249 13.2485 5.70356C13.2485 6.17456 13.6393 6.55669 14.1211 6.55669C14.6029 6.55669 14.9937 6.17456 14.9937 5.70356C14.9937 5.23256 14.6029 4.85044 14.1211 4.85044V4.85072ZM10.2394 5.84753C8.17706 5.84753 6.50496 7.48226 6.50496 9.49855C6.50496 11.5148 8.17706 13.1488 10.2394 13.1488C12.3018 13.1488 13.9733 11.5148 13.9733 9.49855C13.9733 7.48233 12.3016 5.84753 10.2392 5.84753H10.2394ZM10.2394 7.12871C11.5781 7.12871 12.6634 8.18964 12.6634 9.49855C12.6634 10.8073 11.5781 11.8684 10.2394 11.8684C8.90061 11.8684 7.81543 10.8073 7.81543 9.49855C7.81543 8.18964 8.90061 7.12871 10.2394 7.12871Z" fill="white"/>
<defs>
<radialGradient id="paint0_radial_252_929" cx="0" cy="0" r="1" gradientUnits="userSpaceOnUse" gradientTransform="translate(5.87458 20.0002) rotate(-90) scale(18.0376 17.1599)">
<stop stop-color="#FFDD55"/>
<stop offset="0.1" stop-color="#FFDD55"/>
<stop offset="0.5" stop-color="#FF543E"/>
<stop offset="1" stop-color="#C837AB"/>
</radialGradient>
<radialGradient id="paint1_radial_252_929" cx="0" cy="0" r="1" gradientUnits="userSpaceOnUse" gradientTransform="translate(-2.18858 1.70948) rotate(78.4291) scale(8.07006 33.965)">
<stop stop-color="#3771C8"/>
<stop offset="0.128" stop-color="#3771C8"/>
<stop offset="1" stop-color="#6600FF" stop-opacity="0"/>
</radialGradient>
</defs>
</svg>
