<svg width="38" height="31" viewBox="0 0 38 31" fill="none" xmlns="http://www.w3.org/2000/svg">
<path d="M38 13.3571H34.5455V9.07143H31.0909V13.3571H27.6364V17.6429H31.0909V21.9286H34.5455V17.6429H38M12.0909 13.3571V18.5H19C18.6545 20.6429 16.9273 24.9286 12.0909 24.9286C7.94545 24.9286 4.66364 20.6429 4.66364 15.5C4.66364 10.3571 7.94545 6.07143 12.0909 6.07143C14.5091 6.07143 16.0636 7.35714 16.9273 8.42857L20.2091 4.57143C18.1364 2 15.3727 0.5 12.0909 0.5C5.35455 0.5 0 7.14286 0 15.5C0 23.8571 5.35455 30.5 12.0909 30.5C19 30.5 23.6636 24.5 23.6636 15.9286C23.6636 14.8571 23.6636 14.2143 23.4909 13.3571H12.0909Z" fill="#F24E1E"/>
</svg>
