<svg width="22" height="17" viewBox="0 0 22 17" fill="none" xmlns="http://www.w3.org/2000/svg">
<path d="M21.5145 2.6621C21.3883 2.14756 21.1421 1.67847 20.8005 1.30154C20.4589 0.924612 20.0338 0.652996 19.5675 0.513741C17.8602 0 10.989 0 10.989 0C10.989 0 4.11752 0.0155506 2.41026 0.529291C1.94391 0.668555 1.51877 0.940185 1.17716 1.31713C0.835553 1.69408 0.589405 2.16319 0.463227 2.67775C-0.0531797 6.02474 -0.253503 11.1248 0.477407 14.3379C0.603598 14.8524 0.849752 15.3215 1.19136 15.6985C1.53296 16.0754 1.9581 16.347 2.42444 16.4863C4.1317 17 11.003 17 11.003 17C11.003 17 17.8743 17 19.5815 16.4863C20.0478 16.347 20.473 16.0754 20.8146 15.6985C21.1562 15.3215 21.4024 14.8525 21.5286 14.3379C22.0733 10.9862 22.2411 5.88924 21.5145 2.6621Z" fill="#FF0000"/>
<path d="M9 12L14 8.5L9 5V12Z" fill="white"/>
</svg>
