<svg width="35" height="35" viewBox="0 0 35 35" fill="none" xmlns="http://www.w3.org/2000/svg">
<g clip-path="url(#clip0_261_326)">
<path d="M34.9862 17.8311C34.9862 16.3972 34.8672 15.3508 34.6095 14.2656H17.8516V20.7377H27.6881C27.4898 22.3461 26.4189 24.7683 24.039 26.3959L24.0057 26.6126L29.3042 30.6233L29.6713 30.6591C33.0427 27.6168 34.9862 23.1405 34.9862 17.8311Z" fill="#4285F4"/>
<path d="M17.8511 34.8813C22.6701 34.8813 26.7158 33.331 29.6708 30.657L24.0386 26.3938C22.5314 27.4208 20.5085 28.1378 17.8511 28.1378C13.1311 28.1378 9.12514 25.0956 7.69711 20.8906L7.48779 20.908L1.9783 25.0742L1.90625 25.2699C4.84133 30.9669 10.8702 34.8813 17.8511 34.8813Z" fill="#34A853"/>
<path d="M7.69467 20.8861C7.31787 19.801 7.0998 18.6383 7.0998 17.4369C7.0998 16.2354 7.31787 15.0728 7.67484 13.9877L7.66486 13.7566L2.08633 9.52344L1.90381 9.60827C0.694121 11.9724 0 14.6272 0 17.4369C0 20.2467 0.694121 22.9013 1.90381 25.2654L7.69467 20.8861Z" fill="#FBBC05"/>
<path d="M17.8511 6.74338C21.2026 6.74338 23.4634 8.15794 24.7525 9.34006L29.7898 4.53437C26.6961 1.72462 22.6701 0 17.8511 0C10.8702 0 4.84133 3.91426 1.90625 9.61124L7.67729 13.9907C9.12514 9.78571 13.1311 6.74338 17.8511 6.74338Z" fill="#EB4335"/>
</g>
<defs>
<clipPath id="clip0_261_326">
<rect width="35" height="35" fill="white"/>
</clipPath>
</defs>
</svg>
